<?xml version="1.0" encoding="UTF-8" standalone="no"?>
<!-- Created with Inkscape (http://www.inkscape.org/) -->

<svg
   xmlns:dc="http://purl.org/dc/elements/1.1/"
   xmlns:cc="http://creativecommons.org/ns#"
   xmlns:rdf="http://www.w3.org/1999/02/22-rdf-syntax-ns#"
   xmlns:svg="http://www.w3.org/2000/svg"
   xmlns="http://www.w3.org/2000/svg"
   xmlns:sodipodi="http://sodipodi.sourceforge.net/DTD/sodipodi-0.dtd"
   xmlns:inkscape="http://www.inkscape.org/namespaces/inkscape"
   id="svg2"
   version="1.1"
   inkscape:version="0.91 r13725"
   xml:space="preserve"
   width="320"
   height="320"
   viewBox="0 0 320 320"
   sodipodi:docname="od.svg"><metadata
     id="metadata8"><rdf:RDF><cc:Work
         rdf:about=""><dc:format>image/svg+xml</dc:format><dc:type
           rdf:resource="http://purl.org/dc/dcmitype/StillImage" /><dc:title></dc:title></cc:Work></rdf:RDF></metadata><defs
     id="defs6"><clipPath
       clipPathUnits="userSpaceOnUse"
       id="clipPath16"><path
         d="M 123.439,248.582 C 91.931,247.412 63.512,234.16 42.676,213.324 l 0,0 C 20.84,191.488 7.332,161.32 7.332,128 l 0,0 c 0,-3.731 0.17,-7.422 0.502,-11.067 l 0,0 c 0.59,-6.486 1.693,-12.824 3.268,-18.973 l 0,0 C 16.546,76.709 27.635,57.715 42.676,42.676 l 0,0 C 63.512,21.839 91.931,8.588 123.439,7.418 l 0,0 c 33.372,-1.249 66.27,11.642 89.885,35.258 l 0,0 c 15.039,15.039 26.129,34.033 31.574,55.284 l 0,0 c 1.577,6.149 2.68,12.487 3.27,18.973 l 0,0 c 0.33,3.645 0.5,7.336 0.5,11.067 l 0,0 c 0,33.32 -13.508,63.488 -35.344,85.324 l 0,0 c -22.566,22.566 -53.613,35.339 -85.445,35.341 l 0,0 c -1.48,0 -2.957,-0.028 -4.44,-0.083"
         id="path18"
         inkscape:connector-curvature="0" /></clipPath><clipPath
       clipPathUnits="userSpaceOnUse"
       id="clipPath130"><path
         d="m 37,176.668 c 0,-36.637 41.61,20.283 92.418,20.283 l 0,0 c 50.811,0 91.58,-56.92 91.58,-20.283 l 0,0 c 0,36.635 -41.19,66.332 -92,66.332 l 0,0 C 78.188,243 37,213.303 37,176.668"
         id="path132"
         inkscape:connector-curvature="0" /></clipPath><linearGradient
       x1="0"
       y1="0"
       x2="1"
       y2="0"
       gradientUnits="userSpaceOnUse"
       gradientTransform="matrix(0,-76.513687,-76.513687,0,128.99854,243)"
       spreadMethod="pad"
       id="linearGradient138"><stop
         style="stop-opacity:1;stop-color:#ffffff"
         offset="0"
         id="stop140" /><stop
         style="stop-opacity:1;stop-color:#ffffff"
         offset="0.21889646"
         id="stop142" /><stop
         style="stop-opacity:1;stop-color:#bcbec0"
         offset="1"
         id="stop144" /></linearGradient><clipPath
       clipPathUnits="userSpaceOnUse"
       id="clipPath152"><path
         d="M 0,256 256,256 256,0 0,0 0,256 Z"
         id="path154"
         inkscape:connector-curvature="0" /></clipPath><clipPath
       clipPathUnits="userSpaceOnUse"
       id="clipPath164"><path
         d="M 209.899,72.322 C 194.899,49.736 171.163,27.149 130.785,28.1 l 0,0 C 39.721,30.242 33.114,119.629 22.01,116.068 l 0,0 C 10.625,112.416 41.633,16.334 129.816,16.334 l 0,0 c 88.182,0 115.487,93.916 107.805,99.734 l 0,0 c -0.452,0.343 -0.905,0.507 -1.366,0.507 l 0,0 c -5.354,-0.002 -11.663,-22.127 -26.356,-44.253"
         id="path166"
         inkscape:connector-curvature="0" /></clipPath><linearGradient
       x1="0"
       y1="0"
       x2="1"
       y2="0"
       gradientUnits="userSpaceOnUse"
       gradientTransform="matrix(0.9802856,97.052414,97.052414,-0.9802856,128.34766,16.342773)"
       spreadMethod="pad"
       id="linearGradient172"><stop
         style="stop-opacity:1;stop-color:#ffffff"
         offset="0"
         id="stop174" /><stop
         style="stop-opacity:1;stop-color:#ffffff"
         offset="0.21889646"
         id="stop176" /><stop
         style="stop-opacity:1;stop-color:#bcbec0"
         offset="1"
         id="stop178" /></linearGradient><clipPath
       clipPathUnits="userSpaceOnUse"
       id="clipPath186"><path
         d="M 0,256 256,256 256,0 0,0 0,256 Z"
         id="path188"
         inkscape:connector-curvature="0" /></clipPath></defs><sodipodi:namedview
     pagecolor="#ffffff"
     bordercolor="#666666"
     borderopacity="1"
     objecttolerance="10"
     gridtolerance="10"
     guidetolerance="10"
     inkscape:pageopacity="0"
     inkscape:pageshadow="2"
     inkscape:window-width="1184"
     inkscape:window-height="766"
     id="namedview4"
     showgrid="false"
     inkscape:zoom="0.7375"
     inkscape:cx="160"
     inkscape:cy="160"
     inkscape:window-x="1797"
     inkscape:window-y="1038"
     inkscape:window-maximized="0"
     inkscape:current-layer="g10" /><g
     id="g10"
     inkscape:groupmode="layer"
     inkscape:label="od-icon_2012"
     transform="matrix(1.25,0,0,-1.25,0,320)"><g
       id="g12"><g
         id="g14"
         clip-path="url(#clipPath16)"><g
           id="g20"><g
             id="g22"
             transform="scale(1,-1)"><g
               id="g24"><path
                 d="m 42.675827,-42.675786 c 20.835965,20.83594 49.255925,34.087894 80.763783,35.257816 -0.023,-5.776368 0.008,-9.738282 0.0439,-12.683595 -37.001024,-1.195312 -70.123138,-12.277345 -91.320921,-34.568362 3.239751,4.227539 6.752939,8.234376 10.513198,11.994141 z"
                 style="fill:#808285;fill-opacity:1;fill-rule:nonzero;stroke:none"
                 id="path26"
                 inkscape:connector-curvature="0" /><path
                 d="m 32.162629,-54.669927 c 21.197783,22.291017 54.319897,33.37305 91.320921,34.568362 0.0366,-2.945313 0.0781,-4.875 0.0757,-6.587891 -49.086984,-1.251953 -78.275011,-15.805665 -100.269181,-41.298832 2.666508,4.642579 5.63282,9.090821 8.87257,13.318361 z"
                 style="fill:#999b9e;fill-opacity:1;fill-rule:nonzero;stroke:none"
                 id="path28"
                 inkscape:connector-curvature="0" /><path
                 d="m 23.290059,-67.988288 c 21.99417,25.493167 51.182197,40.046879 100.269181,41.298832 -0.002,-1.711914 -0.0483,-3.207032 -0.18604,-5.283204 -61.172445,-1.308594 -84.365347,-21.804689 -107.156393,-50.500004 2.040531,5.004883 4.407233,9.841798 7.073252,14.484376 z"
                 style="fill:#acaeb0;fill-opacity:1;fill-rule:nonzero;stroke:none"
                 id="path30"
                 inkscape:connector-curvature="0" /><path
                 d="m 16.216807,-82.472664 c 22.791046,28.695315 45.983948,49.19141 107.156393,50.500004 -0.13818,-2.076172 -0.36865,-4.734375 -0.74024,-8.771485 -66.6661,-1.333984 -88.379019,-27.066408 -111.531394,-57.216801 1.36133,5.3125 3.0752,10.484375 5.115241,15.488282 z"
                 style="fill:#b8babc;fill-opacity:1;fill-rule:nonzero;stroke:none"
                 id="path32"
                 inkscape:connector-curvature="0" /><path
                 d="m 123.43961,-7.41797 c 8.34278,0.3125 16.65627,-0.2597656 24.80228,-1.6621096 0.56787,-5.4609384 1.54004,-9.3183604 2.67236,-12.2968764 -9.09474,1.177735 -18.30862,1.582032 -27.4307,1.275391 -0.0361,2.945313 -0.0669,6.907227 -0.0439,12.683595 z"
                 style="fill:#808285;fill-opacity:1;fill-rule:nonzero;stroke:none"
                 id="path34"
                 inkscape:connector-curvature="0" /><path
                 d="m 123.48355,-20.101565 c 9.12208,0.306641 18.33596,-0.09766 27.4307,-1.275391 1.13233,-2.978515 2.42481,-5.078125 3.63331,-7.025391 -9.84621,1.457032 -20.1514,2.004883 -30.98832,1.712891 0.002,1.712891 -0.0391,3.642578 -0.0757,6.587891 z"
                 style="fill:#999b9e;fill-opacity:1;fill-rule:nonzero;stroke:none"
                 id="path36"
                 inkscape:connector-curvature="0" /><path
                 d="m 148.24189,-9.0800796 c 8.146,-1.4023434 16.12453,-3.6347654 23.79886,-6.6435554 1.86865,-4.768555 3.76416,-8.448243 5.58692,-11.577149 -8.64455,2.792969 -17.61917,4.747071 -26.71342,5.923828 -1.13232,2.978516 -2.10449,6.835938 -2.67236,12.2968764 z"
                 style="fill:#828486;fill-opacity:1;fill-rule:nonzero;stroke:none"
                 id="path38"
                 inkscape:connector-curvature="0" /><path
                 d="m 150.91425,-21.376956 c 9.09425,-1.176757 18.06887,-3.130859 26.71342,-5.923828 1.82275,-3.128907 3.57373,-5.708985 5.15235,-8.276368 -8.99953,3.348633 -18.38626,5.716797 -28.23246,7.174805 -1.2085,1.947266 -2.50098,4.046876 -3.63331,7.025391 z"
                 style="fill:#9a9c9e;fill-opacity:1;fill-rule:nonzero;stroke:none"
                 id="path40"
                 inkscape:connector-curvature="0" /><path
                 d="m 123.55924,-26.689456 c 21.67385,0.583984 41.22124,-2.19043 59.22078,-8.887696 1.57861,-2.567383 2.98584,-5.124024 4.12256,-8.207032 -18.32571,8.424805 -38.42632,12.368165 -63.52938,11.811524 0.1377,2.076172 0.18359,3.57129 0.18604,5.283204 z"
                 style="fill:#acaeb0;fill-opacity:1;fill-rule:nonzero;stroke:none"
                 id="path42"
                 inkscape:connector-curvature="0" /><path
                 d="m 123.3732,-31.97266 c 25.10306,0.556641 45.20367,-3.386719 63.52938,-11.811524 1.13575,-3.083008 2.00098,-6.692383 2.4961,-11.368165 -19.11331,9.842774 -40.10357,14.95215 -66.76572,14.408204 0.37159,4.03711 0.60206,6.695313 0.74024,8.771485 z"
                 style="fill:#b8babc;fill-opacity:1;fill-rule:nonzero;stroke:none"
                 id="path44"
                 inkscape:connector-curvature="0" /><path
                 d="m 172.04075,-15.723635 c 7.67432,-3.008789 15.04347,-6.794922 21.96926,-11.304688 3.16798,-4.075196 5.92579,-7.729493 8.34669,-11.238282 -7.77149,4.539062 -16.08498,8.172852 -24.72903,10.965821 -1.82276,3.128906 -3.71827,6.808594 -5.58692,11.577149 z"
                 style="fill:#888a8c;fill-opacity:1;fill-rule:nonzero;stroke:none"
                 id="path46"
                 inkscape:connector-curvature="0" /><path
                 d="m 177.62767,-27.300784 c 8.64405,-2.792969 16.95754,-6.426759 24.72903,-10.965821 2.42091,-3.50879 4.50685,-6.872071 6.33302,-10.366212 -8.29786,5.378906 -16.91018,9.707032 -25.9097,13.055665 -1.57862,2.567383 -3.3296,5.147461 -5.15235,8.276368 z"
                 style="fill:#9b9da0;fill-opacity:1;fill-rule:nonzero;stroke:none"
                 id="path48"
                 inkscape:connector-curvature="0" /><path
                 d="m 194.01001,-27.028323 c 6.92677,-4.509766 13.41018,-9.743165 19.31448,-15.647463 3.75977,-3.759765 7.27247,-7.766602 10.51173,-11.994141 -6.47754,6.417969 -13.70704,11.863282 -21.47952,16.403322 -2.4209,3.508789 -5.17871,7.163086 -8.34669,11.238282 z"
                 style="fill:#919395;fill-opacity:1;fill-rule:nonzero;stroke:none"
                 id="path50"
                 inkscape:connector-curvature="0" /><path
                 d="m 202.3567,-38.266605 c 7.77248,-4.54004 15.00198,-9.985353 21.47952,-16.403322 3.24024,-4.22754 6.20704,-8.675782 8.87306,-13.318361 -7.74024,7.548829 -15.72267,13.977541 -24.01956,19.355471 -1.82617,3.494141 -3.91211,6.857422 -6.33302,10.366212 z"
                 style="fill:#a1a3a5;fill-opacity:1;fill-rule:nonzero;stroke:none"
                 id="path52"
                 inkscape:connector-curvature="0" /><path
                 d="m 182.78002,-35.577152 c 8.99952,-3.348633 17.61184,-7.676759 25.9097,-13.055665 1.8252,-3.492188 3.39063,-7.115235 4.77344,-11.143556 -8.67969,6.448243 -17.39846,11.780274 -26.56058,15.992189 -1.13672,3.083008 -2.54395,5.639649 -4.12256,8.207032 z"
                 style="fill:#acaeb0;fill-opacity:1;fill-rule:nonzero;stroke:none"
                 id="path54"
                 inkscape:connector-curvature="0" /><path
                 d="m 186.90258,-43.784184 c 9.16212,-4.211915 17.88089,-9.543946 26.56058,-15.992189 1.38184,-4.028321 2.58009,-8.461915 3.67091,-13.575196 -9.09181,7.172852 -18.17874,13.277344 -27.73539,18.19922 -0.49512,4.675782 -1.36035,8.285157 -2.4961,11.368165 z"
                 style="fill:#b7b9bc;fill-opacity:1;fill-rule:nonzero;stroke:none"
                 id="path56"
                 inkscape:connector-curvature="0" /><path
                 d="m 208.68972,-48.632817 c 8.29689,-5.37793 16.27932,-11.806642 24.01956,-19.355471 2.66602,-4.642578 5.03321,-9.479493 7.07423,-14.484376 -9.00294,8.681641 -17.64162,16.248048 -26.32035,22.696291 -1.38281,4.028321 -2.94824,7.651368 -4.77344,11.143556 z"
                 style="fill:#aeb0b3;fill-opacity:1;fill-rule:nonzero;stroke:none"
                 id="path58"
                 inkscape:connector-curvature="0" /><path
                 d="m 213.46316,-59.776373 c 8.67873,-6.448243 17.31741,-14.01465 26.32035,-22.696291 2.04004,-5.003907 3.75391,-10.175782 5.11524,-15.488282 -9.57618,9.195313 -18.67287,17.436524 -27.76468,24.609377 -1.09082,5.113281 -2.28907,9.546875 -3.67091,13.575196 z"
                 style="fill:#b8babc;fill-opacity:1;fill-rule:nonzero;stroke:none"
                 id="path60"
                 inkscape:connector-curvature="0" /><path
                 d="m 11.101566,-97.960946 c 23.152375,30.150393 44.865294,55.882817 111.531394,57.216801 -1.3789,-15.03711 6.1797,-131.298835 5.52345,-143.062515 -62.109458,-1.08398 -114.338043,104.396496 -120.3224262,66.87306 0.5898445,6.48632 1.6933616,12.82422 3.2675822,18.972654 z"
                 style="fill:#bbbdc0;fill-opacity:1;fill-rule:nonzero;stroke:none"
                 id="path62"
                 inkscape:connector-curvature="0" /><path
                 d="m 122.63296,-40.744145 c 53.32429,1.087891 83.96105,-20.437501 122.26579,-57.216801 1.57618,-6.148434 2.67969,-12.486334 3.26954,-18.972654 -12.29885,43.599609 -65.93368,-65.9297 -120.01188,-66.87306 0.65625,11.76368 -6.90235,128.025405 -5.52345,143.062515 z"
                 style="fill:#bbbdc0;fill-opacity:1;fill-rule:nonzero;stroke:none"
                 id="path64"
                 inkscape:connector-curvature="0" /><path
                 d="m 7.8339838,-116.9336 c 5.9843832,37.523436 58.2129682,-67.95704 120.3224262,-66.87306 -0.37158,-6.68408 -0.79736,-12.12012 -1.25391,-16.55078 -60.077227,2.05371 -110.967431,101.003915 -119.57047,72.35743 0,3.73047 0.1699221,7.42187 0.5019538,11.06641 z"
                 style="fill:#bbbdc0;fill-opacity:1;fill-rule:nonzero;stroke:none"
                 id="path66"
                 inkscape:connector-curvature="0" /><path
                 d="m 7.33203,-128.00001 c 2.1508817,7.16211 6.944345,6.34863 13.863788,1.06836 -0.156739,-8.54688 0.949708,-17.48438 3.001957,-26.48829 -6.827157,4.98731 -11.785172,6.33106 -14.4135933,1.10157 -1.6079123,7.85547 -2.4521517,15.98828 -2.4521517,24.31836 z"
                 style="fill:#bbbdc0;fill-opacity:1;fill-rule:nonzero;stroke:none"
                 id="path68"
                 inkscape:connector-curvature="0" /><path
                 d="m 9.7841817,-152.31837 c 2.6284213,5.22949 7.5864363,3.88574 14.4135933,-1.10157 2.052249,-9.00293 5.050788,-18.07226 8.678234,-26.88183 -6.886728,4.01562 -12.380876,6.30957 -16.060568,5.333 -3.053227,7.21876 -5.423835,14.7959 -7.0312593,22.6504 z"
                 style="fill:#b5b7b9;fill-opacity:1;fill-rule:nonzero;stroke:none"
                 id="path70"
                 inkscape:connector-curvature="0" /><path
                 d="m 21.195818,-126.93165 c 6.919443,-5.28028 15.964865,-15.02735 26.618688,-25.73438 -0.500977,-9.02441 0.302735,-16.71289 2.014163,-23.71289 -10.105971,9.34375 -18.803248,17.97266 -25.630894,22.95898 -2.052249,9.00391 -3.158696,17.94141 -3.001957,26.48829 z"
                 style="fill:#bbbdbf;fill-opacity:1;fill-rule:nonzero;stroke:none"
                 id="path72"
                 inkscape:connector-curvature="0" /><path
                 d="m 24.197775,-153.41994 c 6.827646,-4.98632 15.524923,-13.61523 25.630894,-22.95898 1.711428,-7 4.330572,-13.3125 7.462412,-19.58643 -9.250012,5.90967 -17.528832,11.64746 -24.415072,15.66358 -3.627446,8.80957 -6.625985,17.8789 -8.678234,26.88183 z"
                 style="fill:#b2b4b7;fill-opacity:1;fill-rule:nonzero;stroke:none"
                 id="path74"
                 inkscape:connector-curvature="0" /><path
                 d="m 16.815441,-174.96877 c 3.679692,0.97657 9.17384,-1.31738 16.060568,-5.333 3.626958,-8.81055 7.883312,-17.36231 12.452165,-25.33008 -6.753915,3.40527 -12.655778,6.88964 -17.386742,10.16552 -4.336919,6.41944 -8.072764,13.27881 -11.125991,20.49756 z"
                 style="fill:#a9abad;fill-opacity:1;fill-rule:nonzero;stroke:none"
                 id="path76"
                 inkscape:connector-curvature="0" /><path
                 d="m 27.941432,-195.46633 c 4.730964,-3.27588 10.632827,-6.76025 17.386742,-10.16552 4.568366,-7.96778 9.44972,-15.35157 14.326191,-21.82715 -6.086433,4.19091 -11.769547,8.92578 -16.978538,14.13476 -5.458992,5.45899 -10.397475,11.43848 -14.734395,17.85791 z"
                 style="fill:#97999b;fill-opacity:1;fill-rule:nonzero;stroke:none"
                 id="path78"
                 inkscape:connector-curvature="0" /><path
                 d="m 32.876009,-180.30177 c 6.88624,-4.01612 15.16506,-9.75391 24.415072,-15.66358 3.131352,-6.27393 6.774423,-12.5083 10.534194,-19.35254 -8.137706,2.95654 -15.743185,6.28076 -22.497101,9.68604 -4.568853,7.96777 -8.825207,16.51953 -12.452165,25.33008 z"
                 style="fill:#a2a4a7;fill-opacity:1;fill-rule:nonzero;stroke:none"
                 id="path80"
                 inkscape:connector-curvature="0" /><path
                 d="m 45.328174,-205.63185 c 6.753916,-3.40528 14.359395,-6.7295 22.497101,-9.68604 3.759282,-6.84424 7.634776,-14.29834 11.230483,-23.01026 -6.824227,3.03223 -13.31447,6.67872 -19.401393,10.86915 -4.876471,6.47558 -9.757825,13.85937 -14.326191,21.82715 z"
                 style="fill:#8e9092;fill-opacity:1;fill-rule:nonzero;stroke:none"
                 id="path82"
                 inkscape:connector-curvature="0" /><path
                 d="m 47.814506,-152.66603 c 21.307645,-21.41309 49.049382,-46.66455 79.087994,-47.69141 -1.00195,-9.71826 -2.15186,-14.60059 -3.20508,-17.20459 -27.807166,0.95752 -53.656322,22.49805 -73.868751,41.18311 -1.711428,7 -2.51514,14.68848 -2.014163,23.71289 z"
                 style="fill:#bbbdbf;fill-opacity:1;fill-rule:nonzero;stroke:none"
                 id="path84"
                 inkscape:connector-curvature="0" /><path
                 d="m 49.828669,-176.37892 c 20.212429,-18.68506 46.061585,-40.22559 73.868751,-41.18311 -1.05371,-2.60401 -2.01075,-2.93018 -2.62647,-3.5376 -22.896514,0.80567 -45.280333,13.31494 -63.779869,25.13428 -3.13184,6.27393 -5.750984,12.58643 -7.462412,19.58643 z"
                 style="fill:#b2b4b6;fill-opacity:1;fill-rule:nonzero;stroke:none"
                 id="path86"
                 inkscape:connector-curvature="0" /><path
                 d="m 57.291081,-195.96535 c 9.250012,-5.90967 19.470729,-11.9917 30.241251,-16.69727 1.679202,-2.55713 3.753423,-5.29443 5.986336,-10.12988 -8.884777,1.93018 -17.555199,4.51807 -25.693393,7.47461 -3.759771,6.84424 -7.402842,13.07861 -10.534194,19.35254 z"
                 style="fill:#a0a2a5;fill-opacity:1;fill-rule:nonzero;stroke:none"
                 id="path88"
                 inkscape:connector-curvature="0" /><path
                 d="m 67.825275,-215.31789 c 8.138194,-2.95654 16.808616,-5.54443 25.693393,-7.47461 2.233402,-4.83545 4.625006,-11.76904 6.939462,-22.71729 -7.420908,1.73242 -14.578144,4.14991 -21.402372,7.18164 -3.595707,8.71192 -7.471201,16.16602 -11.230483,23.01026 z"
                 style="fill:#888a8d;fill-opacity:1;fill-rule:nonzero;stroke:none"
                 id="path90"
                 inkscape:connector-curvature="0" /><path
                 d="m 87.532332,-212.66262 c 10.770522,-4.70556 22.090358,-8.03418 33.538618,-8.43701 -0.61572,-0.60742 -0.88916,-1.4956 -0.57617,-5.22314 -8.99318,0.32666 -18.09133,1.60009 -26.976112,3.53027 -2.232913,4.83545 -4.307134,7.57275 -5.986336,10.12988 z"
                 style="fill:#9fa1a4;fill-opacity:1;fill-rule:nonzero;stroke:none"
                 id="path92"
                 inkscape:connector-curvature="0" /><path
                 d="m 93.518668,-222.7925 c 8.884782,-1.93018 17.982932,-3.20361 26.976112,-3.53027 0.31299,-3.72754 1.21289,-10.29444 2.94483,-22.25928 -7.87697,0.29248 -15.56106,1.33984 -22.98148,3.07226 -2.314456,10.94825 -4.70606,17.88184 -6.939462,22.71729 z"
                 style="fill:#86888b;fill-opacity:1;fill-rule:nonzero;stroke:none"
                 id="path94"
                 inkscape:connector-curvature="0" /><path
                 d="m 128.15641,-183.80666 c 54.0782,0.94336 107.71303,110.472669 120.01188,66.87306 0.33008,-3.64454 0.5,-7.33594 0.5,-11.06641 -15.06838,33.815431 -68.19492,-68.73048 -121.76579,-72.35743 0.45655,4.43066 0.88233,9.8667 1.25391,16.55078 z"
                 style="fill:#bbbdc0;fill-opacity:1;fill-rule:nonzero;stroke:none"
                 id="path96"
                 inkscape:connector-curvature="0" /><path
                 d="m 126.9025,-200.35744 c 26.78519,1.81348 53.45955,28.35742 75.32139,50.22071 -0.50098,-9.02442 -2.17188,-16.99219 -4.5127,-24.41211 -22.27835,-19.05909 -48.80719,-41.58057 -74.01377,-43.01319 1.05322,2.604 2.20313,7.48633 3.20508,17.20459 z"
                 style="fill:#bbbdbf;fill-opacity:1;fill-rule:nonzero;stroke:none"
                 id="path98"
                 inkscape:connector-curvature="0" /><path
                 d="m 123.69742,-217.56203 c 25.20658,1.43262 51.73542,23.9541 74.01377,43.01319 -2.3418,-7.4209 -5.35352,-14.29346 -8.53517,-21.12696 -21.67678,-12.02148 -46.37018,-24.8291 -68.10507,-25.42383 0.61572,0.60742 1.57276,0.93359 2.62647,3.5376 z"
                 style="fill:#b2b4b6;fill-opacity:1;fill-rule:nonzero;stroke:none"
                 id="path100"
                 inkscape:connector-curvature="0" /><path
                 d="m 121.07095,-221.09963 c 10.86769,0.29736 22.47464,3.64795 34.07475,8.42676 -2.21191,-2.90674 -4.24219,-5.99414 -5.56739,-11.09229 -10.05519,-1.72656 -19.95168,-2.6792 -29.08353,-2.55761 -0.31299,3.72754 -0.0396,4.61572 0.57617,5.22314 z"
                 style="fill:#a0a2a5;fill-opacity:1;fill-rule:nonzero;stroke:none"
                 id="path102"
                 inkscape:connector-curvature="0" /><path
                 d="m 120.49478,-226.32277 c 9.13185,-0.12159 19.02834,0.83105 29.08353,2.55761 -1.32519,-5.09814 -1.94482,-12.20703 -1.33642,-23.15527 -8.14601,-1.40186 -16.4595,-1.97363 -24.80228,-1.66162 -1.73194,11.96484 -2.63184,18.53174 -2.94483,22.25928 z"
                 style="fill:#85878a;fill-opacity:1;fill-rule:nonzero;stroke:none"
                 id="path104"
                 inkscape:connector-curvature="0" /><path
                 d="m 155.1457,-212.67287 c 11.59963,4.7793 23.19193,10.98633 34.03032,16.99707 -3.18164,-6.8335 -6.5337,-13.62793 -9.55616,-20.8916 -9.77004,-2.97266 -19.98538,-5.47217 -30.04155,-7.19776 1.3252,5.09815 3.35548,8.18555 5.56739,11.09229 z"
                 style="fill:#9fa1a4;fill-opacity:1;fill-rule:nonzero;stroke:none"
                 id="path106"
                 inkscape:connector-curvature="0" /><path
                 d="m 149.57831,-223.76516 c 10.05617,1.72559 20.27151,4.2251 30.04155,7.19776 -3.02247,-7.26367 -5.71534,-14.99756 -7.57911,-23.70948 -7.67433,-3.00927 -15.65286,-5.2417 -23.79886,-6.64355 -0.6084,10.94824 0.0112,18.05713 1.33642,23.15527 z"
                 style="fill:#86888b;fill-opacity:1;fill-rule:nonzero;stroke:none"
                 id="path108"
                 inkscape:connector-curvature="0" /><path
                 d="m 202.22389,-150.13673 c 10.93068,10.93164 20.65823,20.69238 28.59477,25.60742 -0.15625,-8.54687 -1.45118,-17.72949 -3.57618,-27.09961 -8.31739,-4.72852 -18.3926,-13.39063 -29.53129,-22.91992 2.34082,7.41992 4.01172,15.38769 4.5127,24.41211 z"
                 style="fill:#bbbdbf;fill-opacity:1;fill-rule:nonzero;stroke:none"
                 id="path110"
                 inkscape:connector-curvature="0" /><path
                 d="m 197.71119,-174.54884 c 11.13869,9.52929 21.2139,18.1914 29.53129,22.91992 -2.125,-9.37109 -5.08106,-18.92969 -8.55861,-28.22852 -8.58399,-3.99316 -18.66897,-9.80762 -29.50785,-15.81836 3.18165,6.8335 6.19337,13.70606 8.53517,21.12696 z"
                 style="fill:#b2b4b6;fill-opacity:1;fill-rule:nonzero;stroke:none"
                 id="path112"
                 inkscape:connector-curvature="0" /><path
                 d="m 230.81866,-124.52931 c 7.93653,4.91406 14.08205,4.9834 17.84963,-3.4707 0,-8.33008 -0.84375,-16.46289 -2.45118,-24.31836 -4.10156,6.21094 -10.65821,5.41797 -18.97463,0.68945 2.125,9.37012 3.41993,18.55274 3.57618,27.09961 z"
                 style="fill:#bbbdbf;fill-opacity:1;fill-rule:nonzero;stroke:none"
                 id="path114"
                 inkscape:connector-curvature="0" /><path
                 d="m 227.24248,-151.62892 c 8.31642,4.72852 14.87307,5.52149 18.97463,-0.68945 -1.60742,-7.8545 -3.97852,-15.43164 -7.03223,-22.6504 -4.83497,1.2754 -11.91799,-0.89648 -20.50101,-4.88867 3.47755,9.29883 6.43361,18.85743 8.55861,28.22852 z"
                 style="fill:#b2b4b7;fill-opacity:1;fill-rule:nonzero;stroke:none"
                 id="path116"
                 inkscape:connector-curvature="0" /><path
                 d="m 189.17602,-195.6758 c 10.83888,6.01074 20.92386,11.8252 29.50785,15.81836 -3.47852,-9.2998 -7.4795,-18.34082 -11.69435,-26.67529 -8.27442,-3.61719 -17.59865,-7.06202 -27.36966,-10.03467 3.02246,7.26367 6.37452,14.0581 9.55616,20.8916 z"
                 style="fill:#a0a2a5;fill-opacity:1;fill-rule:nonzero;stroke:none"
                 id="path118"
                 inkscape:connector-curvature="0" /><path
                 d="m 179.61986,-216.5674 c 9.77101,2.97265 19.09524,6.41748 27.36966,10.03467 -4.21485,-8.33448 -8.64356,-15.96338 -12.97951,-22.43897 -6.92579,-4.50977 -14.29494,-8.2959 -21.96926,-11.30518 1.86377,8.71192 4.55664,16.44581 7.57911,23.70948 z"
                 style="fill:#888a8d;fill-opacity:1;fill-rule:nonzero;stroke:none"
                 id="path120"
                 inkscape:connector-curvature="0" /><path
                 d="m 218.68387,-179.85744 c 8.58302,3.99219 15.66604,6.16407 20.50101,4.88867 -3.05372,-7.21875 -6.78907,-14.07812 -11.12599,-20.49756 -5.57032,-3.65966 -12.79494,-7.4497 -21.06937,-11.0664 4.21485,8.33447 8.21583,17.37549 11.69435,26.67529 z"
                 style="fill:#a2a4a7;fill-opacity:1;fill-rule:nonzero;stroke:none"
                 id="path122"
                 inkscape:connector-curvature="0" /><path
                 d="m 206.98952,-206.53273 c 8.27443,3.6167 15.49905,7.40674 21.06937,11.0664 -4.33692,-6.41943 -9.27541,-12.39892 -14.7344,-17.85791 -5.9043,-5.90381 -12.38771,-11.13769 -19.31448,-15.64746 4.33595,6.47559 8.76466,14.10449 12.97951,22.43897 z"
                 style="fill:#8e9092;fill-opacity:1;fill-rule:nonzero;stroke:none"
                 id="path124"
                 inkscape:connector-curvature="0" /></g></g></g></g></g><g
       id="g126"><g
         id="g128"
         clip-path="url(#clipPath130)"><g
           id="g134"><g
             id="g136"><path
               d="m 37,176.668 c 0,-36.637 41.61,20.283 92.418,20.283 l 0,0 c 50.811,0 91.58,-56.92 91.58,-20.283 l 0,0 c 0,36.635 -41.19,66.332 -92,66.332 l 0,0 C 78.188,243 37,213.303 37,176.668"
               style="fill:url(#linearGradient138);stroke:none"
               id="path146"
               inkscape:connector-curvature="0" /></g></g></g></g><g
       id="g148"><g
         id="g150"
         clip-path="url(#clipPath152)"><g
           id="g156"
           transform="translate(248.668,128)"><path
             d="m 0,0 c 0,-66.641 -54.027,-120.668 -120.668,-120.668 -66.643,0 -120.668,54.027 -120.668,120.668 0,66.641 54.025,120.668 120.668,120.668 C -54.027,120.668 0,66.641 0,0 Z"
             style="fill:none;stroke:#231f20;stroke-width:2;stroke-linecap:butt;stroke-linejoin:miter;stroke-miterlimit:4;stroke-dasharray:none;stroke-opacity:1"
             id="path158"
             inkscape:connector-curvature="0" /></g></g></g><g
       id="g160"><g
         id="g162"
         clip-path="url(#clipPath164)"><g
           id="g168"><g
             id="g170"><path
               d="M 209.899,72.322 C 194.899,49.736 171.163,27.149 130.785,28.1 l 0,0 C 39.721,30.242 33.114,119.629 22.01,116.068 l 0,0 C 10.625,112.416 41.633,16.334 129.816,16.334 l 0,0 c 88.182,0 115.487,93.916 107.805,99.734 l 0,0 c -0.452,0.343 -0.905,0.507 -1.366,0.507 l 0,0 c -5.354,-0.002 -11.663,-22.127 -26.356,-44.253"
               style="fill:url(#linearGradient172);stroke:none"
               id="path180"
               inkscape:connector-curvature="0" /></g></g></g></g><g
       id="g182"><g
         id="g184"
         clip-path="url(#clipPath186)"><g
           id="g190"
           transform="translate(64.2188,66.0352)"><path
             d="m 0,0 c 0,0 0.078,4.949 0.697,10.73 0.621,5.778 4.438,13.114 11.207,16.926 0,0 -6.07,7.871 -9.103,14.782 -3.035,6.917 -5.485,19.671 -5.485,19.671 0,0 3.5,1.43 7.704,1.43 4.201,0 8.753,-0.359 8.753,-0.359 l 0.682,4.617 c 0,0 -4.42,-0.086 -9.32,-0.086 -4.905,0 -10.508,-0.238 -12.608,-0.238 l -4.668,0 c 0,0 2.217,-2.266 3.733,-3.817 1.519,-1.547 2.57,-9.535 3.738,-13.113 1.168,-3.574 3.897,-10.824 5.486,-13.469 1.123,-1.867 7.471,-8.34 6.42,-9.418 C 6.186,26.582 -0.115,20.621 -1.986,15.617 -3.854,10.609 -5.373,0 -5.373,0 L 0,0 Z"
             style="fill:#ed1c24;fill-opacity:1;fill-rule:nonzero;stroke:none"
             id="path192"
             inkscape:connector-curvature="0" /></g><g
           id="g194"
           transform="translate(164.6094,149.4844)"><path
             d="m 0,0 c -10.273,0 -31.285,0.117 -41.557,-0.477 -7.75,-0.449 -31.476,1.497 -37.047,2.032 0.008,0.015 4.219,9.308 8.329,18.629 0,0 6.3,-3.258 10.974,-4.688 4.666,-1.433 21.01,-4.648 36.651,-5.484 10.841,-0.578 29.318,1.804 34.97,2.793 1.207,-4.676 2.508,-9.547 3.321,-13.282 0.14,-0.648 0.336,-1.367 0.562,-2.144 C 9.75,-1.082 3.801,0 0,0 m -83.467,-6.676 c -7.234,0 -24.16,1.43 -30,3.574 -5.836,2.149 -12.019,6.317 -16.226,13.231 0,0 6.422,-1.547 10.625,-2.738 4.203,-1.192 17.277,-5.485 25.683,-7.153 8.403,-1.668 20.074,-3.578 24.512,-3.578 4.432,0 10.623,-1.195 10.623,-1.195 0,0 -17.979,-2.141 -25.217,-2.141 m 26.969,51.02 c 4.203,1.91 19.258,-8.465 21.711,-10.969 2.451,-2.5 15.176,-10.727 16.808,-10.727 1.629,0 6.655,7.036 9.807,10.254 3.152,3.215 15.406,5.957 17.039,5.957 1.637,0 0.469,-7.152 0.469,-11.679 0,-1.914 0.797,-5.617 1.848,-9.899 -1.996,-0.554 -6.606,-1.648 -14.454,-2.5 -10.974,-1.191 -31.751,0.239 -43.423,2.621 -9.426,1.926 -18.391,6.024 -21.496,7.532 0.084,0.195 0.168,0.382 0.248,0.574 4.67,10.726 7.24,16.93 11.443,18.836 M 45.523,-11.445 c -5.718,2.621 -12.418,4.882 -23.582,7.129 -0.461,1.179 -0.871,2.203 -1.211,3 -2.332,5.484 -8.359,26.109 -8.359,29.925 0,3.817 0.934,11.68 -2.101,12.871 -3.036,1.196 -14.942,-3.097 -18.907,-5.003 -3.972,-1.907 -6.775,-8.344 -9.342,-8.344 -2.57,0 -14.826,9.418 -18.21,12.871 -3.383,3.457 -16.106,10.582 -20.079,10.582 -3.968,0 -6.068,-6.762 -8.404,-11.297 -2.332,-4.527 -5.369,-13.586 -8.402,-20.5 -3.022,-6.883 -10.69,-17.062 -10.74,-17.168 -2.672,0.356 -25.098,7.152 -31.168,8.582 -6.073,1.43 -21.127,3.817 -24.399,4.77 0,0 9.106,-18 19.145,-23.008 10.039,-5.008 21.011,-5.367 32.218,-5.367 11.207,0 27.549,3.105 38.288,4.769 10.74,1.672 41.558,3.813 54.164,2.387 4.863,-0.551 9.168,-1.176 13.347,-1.992 3.676,-9.797 10.231,-23.043 10.231,-23.043 0,0 -4.434,0.476 -6.301,0.476 -1.867,0 -6.539,-1.191 -6.539,-1.191 l 4.203,-2.387 13.543,0 c 0,0 -0.117,3.817 -2.566,7.871 -1.5,2.469 -4.004,9.871 -6.657,16.688 5.086,-1.196 11.032,-2.379 16.809,-5.008 12.609,-5.723 22.066,-9.055 22.066,-9.055 l 3.535,0 c 0,0 -11.484,7.27 -20.582,11.442"
             style="fill:#ed1c24;fill-opacity:1;fill-rule:nonzero;stroke:none"
             id="path196"
             inkscape:connector-curvature="0" /></g><g
           id="g198"
           transform="translate(148.7559,122.6602)"><path
             d="m 0,0 0.191,5.473 c 0,0 12.709,-5.395 15.221,-7.016 2.777,-1.801 10.043,-5.941 10.043,-5.941 l -1.664,-3.329 c 0,0 -10.754,5.907 -12.785,6.868 C 8.967,-2.984 0.172,-0.039 0.172,-0.039 L 0,0 Z"
             style="fill:#ed1c24;fill-opacity:1;fill-rule:nonzero;stroke:none"
             id="path200"
             inkscape:connector-curvature="0" /></g><g
           id="g202"
           transform="translate(174.2109,115.1758)"><path
             d="m 0,0 -1.664,-3.328 23.113,-16.246 -11.441,-13.059 0,-4.586 c 0,0 6.769,2.864 10.039,2.864 3.269,0 8.641,1.187 8.641,-1.196 0,-2.383 1.164,-10.492 1.164,-10.492 l 4.902,0 c 0,0 -1.547,10.941 -3.969,13.41 -2.426,2.473 -15.406,0 -15.406,0 0,0 -0.934,0.653 1.398,3.047 2.336,2.379 12.723,11.441 12.723,11.441 L 6.039,-3.844 0,0 Z"
             style="fill:#ed1c24;fill-opacity:1;fill-rule:nonzero;stroke:none"
             id="path204"
             inkscape:connector-curvature="0" /></g><g
           id="g206"
           transform="translate(144.8652,128.8125)"><path
             d="M 0,0 C 0,0 -19.229,2.344 -28.176,3.445 -37.123,4.543 -66.32,5.02 -66.32,5.02 l -0.553,-4.618 c 29.428,-1.394 26.58,-1.304 32.984,-1.781 l 9.487,-0.871 C -14.309,-3.203 3.891,-6.152 3.891,-6.152 L 4.082,-0.68 0,0 Z"
             style="fill:#ed1c24;fill-opacity:1;fill-rule:nonzero;stroke:none"
             id="path208"
             inkscape:connector-curvature="0" /></g></g></g></g></svg>