/* XPM */
static const char *scene_xpm_data[] = {
/* width height num_colors chars_per_pixel */
"   100   100       16            1",
/* colors */
". c None",
"# c #904b00",
"a c #904c00",
"b c #a45600",
"c c #a45600",
"d c #7c4200",
"e c #743c00",
"f c #6c3800",
"g c #643400",
"h c #5c3000",
"i c #542c00",
"j c #482600",
"k c #402400",
"l c #381e00",
"m c #301a00",
"n c #000000",
/* pixels */
"....................................................................................................",
"....................................................................................................",
"....................................................................................................",
"....................................................................................................",
"....................................................................................................",
"....................................................................................................",
"....................................................................................................",
"....................................................................................................",
"....................................................................................................",
"....................................................................................................",
".............................................#################aaa...................................",
"..........................................##aaaaaaaaa############aaaaabbbccccccc....................",
".......................................aaaaaaaaaaaaaaaaaaaa########aaaabbbbcccccccccccccccccccc.....",
"....................................aaaaaaadddddddddddaaaaaaaa#######aaaabbbcccccccccccccccccccc....",
".................................aaaaadddddddd..dd...............######aaaabbbcccccccccccccccccc....",
"..............................aaaaadddddddd.....dd.............................ccccccccccccccccc....",
"...........................#aaaaaddddddd........dd.........................................ccccc....",
"........................###aaaddddddd...........ee........................................cccccc....",
".....................####aaaadddd...............ee.......................................ccccccc....",
"..................a#####aaaddd..................ff......................................cccccccc....",
"..............baaa####aaaad.....................ff.....................................ccccccccc....",
"...........cbbaaa####aaa........................ff....................................ccccc.cccc....",
"........cccbbbaa####a...........................gg...................................bcccc..cccc....",
".....cccccbbbaa###..............................gg..................................bbbcc...cccc....",
"..ccccccccbbaa#.................................hh.................................aabbc....cccc....",
".ccccccccbba....................................hh................................#aaab.....cccc....",
"ccccccccbbaaa###................................ii...............................###aa......cccc....",
".cccccccbbaa####aaddd...........................ii..............................a####.......cccc....",
".ccccccbbaa####aadddddeeeff.....................ii.............................daa##........cccc....",
".ccccc....a###aaaddddeeeffffggghh...............jj............................ddaaa.........cccc....",
"..cccc.........adddddeeffffggghhhiii............jj...........................dddda..........cccc....",
"..cccb...............effffggghhhiiiiik....jj....kk..........................edddd...........cccc....",
"..cccbb....................ghhhiiiikkjjjjjkkkkkkkk.........................eeedd............cccc....",
"...cbbb.........................iikjjjjkkkkkkklllllkkkk...................ffeee.............bccc....",
"...cbba..............................kkkkklllllllllllllkkkkkj............ffffe.............bbccc....",
"...cbba....................................llllllllllllllkkkkjjjki......ggfff..............bbcc.....",
"...bbaa.........................................mmmmlllllllkkkjjjkiiiihhgggf...............abbc.....",
"...bbaa#........................................mm.....lllllkkkjjjkiiiihhgg................abbc.....",
"....baa#........................................mm..........llkkjjjkiiihhh.................abbc.....",
"....aa##........................................mm................jjkiiih..................aabb.....",
"....aa##........................................mm..................kiii...................aabb.....",
"....aa##........................................nnn.................jkii...................aabb.....",
"....a###a......................................nnnnnnnmm............jkii...................#abb.....",
".....###a.....................................nnn.nnnnnnmmmmm.......jjki...................#aab.....",
".....###a...................................nnnn........nmmmmmmlll..jjki...................#aab.....",
".....###a..................................nnn...............mmlllkkjjki...................#aab.....",
".....###a.................................nnn.....................lkkjjkiiihh..............#aab.....",
".....###ad..............................nnnn........................kjjkiiihhggfff.........#aab.....",
"......#aad.............................nnn..........................kjjk.....ggfffeeddd....#aab.....",
"......#aad............................nnn...........................kjjk..........eeddddaa###ab.....",
"......#aad..........................mnnn............................kkjk...............daa###aa.....",
"......#aad.........................mmnn.............................kkjj..................###aa.....",
"......#aadd.......................mmm...............................kkjj.................a###a......",
".......aadd......................mmm................................kkjj.................a###.......",
".......aadd....................lmmm.................................kkjk................aa###.......",
".......aadd...................llm...................................kjjk................aa##........",
".......aadd..................kll....................................kjjk...............daa##........",
".......#addd................kkl.....................................kjjk...............da##.........",
"........aadd..............jjkk......................................kjjk..............daa##.........",
"........aadd.............ikj........................................jjki..............daa#..........",
"........aadd............iik.........................................jjki.............ddaa#..........",
"........aadd..........hiii..........................................jjki.............ddaa...........",
"........aaddd........hhh............................................jkii............dddaa...........",
".........aadd.......ggh.............................................jkii............ddaa............",
".........aadd......fgg..............................................kiii...........dddaa............",
".........aadd....efff...............................................kiii...........ddda.............",
".........#aad...eef.................................................iiih..........dddaa.............",
".........#aadd.dee..................................................iiih..........ddda..............",
"..........aaadddd...................................................iihh.........dddaa..............",
"..........#aadd.....................................................ihhh.........ddda...............",
"..........#aad......................................................hhhg........dddda...............",
"..........##aadd....................................................hhgg........ddda................",
"..........##aaaddd..................................................hggg.......ddda.................",
"...........##aaddddde...............................................gggf......dddda.................",
"............##aadddddeef............................................ggff......ddda..................",
"...............aaddddeeefff.........................................gfff.....dddaa..................",
"..................ddddeeeffff.......................................ffff.....ddda...................",
"....................dddeeefffffg....................................fffe....dddaa...................",
".......................deeefffffggg.................................ffee....ddaa....................",
"..........................eeefffffggg...............................eeee...ddaaa....................",
".............................effffffggg.............................eedd...daaa.....................",
"...............................effffffggggg.........................eddd..daaa#.....................",
"..................................ffffffffgggg......................dddd..aaa#......................",
".....................................ffffffffffff...................dddd.aaa##......................",
"........................................ffffffffffff................ddda.aa##.......................",
"...........................................fffffffffff..............ddaaa####.......................",
".............................................eeeeeeeeeeee...........aaaa####........................",
"................................................eeeeeeeddddd........aa#####a........................",
"...................................................dddddddddddd.....a#####a.........................",
"......................................................ddddddddaaa...#####aa.........................",
"........................................................dddaaaaaa######aaa..........................",
"...........................................................aaa#######aaaab..........................",
"..............................................................#####aaaabb...........................",
".................................................................aaaaabbb...........................",
"...................................................................bbbbb............................",
"....................................................................................................",
"....................................................................................................",
"....................................................................................................",
"....................................................................................................",
"...................................................................................................."
};
