/* XPM */
static const char * od_instmgr_xpm_data[] = {
"32 32 384 2",
"  	c None",
". 	c #1E1E1F",
"+ 	c #242525",
"@ 	c #1F2020",
"# 	c #3C3C3D",
"$ 	c #6E6F70",
"% 	c #8C8C8D",
"& 	c #979798",
"* 	c #8F9090",
"= 	c #767677",
"- 	c #454647",
"; 	c #717273",
"> 	c #CDCECF",
", 	c #F7F8F8",
"' 	c #FFFFFF",
") 	c #FDFEFE",
"! 	c #DADBDB",
"~ 	c #868788",
"{ 	c #3B3B3D",
"] 	c #C3C4C6",
"^ 	c #FEFFFF",
"/ 	c #FBFBFC",
"( 	c #F5F5F5",
"_ 	c #F3F3F4",
": 	c #F3F3F3",
"< 	c #F2F3F3",
"[ 	c #F4F4F5",
"} 	c #F9F9FA",
"| 	c #DADADB",
"1 	c #4F4F50",
"2 	c #4A4B4D",
"3 	c #D7D8DA",
"4 	c #F4F5F5",
"5 	c #E9EAEB",
"6 	c #E8E9EA",
"7 	c #E9E9EA",
"8 	c #E8F1F2",
"9 	c #E8EFF0",
"0 	c #E9EAEA",
"a 	c #F1F2F2",
"b 	c #EAEBED",
"c 	c #606062",
"d 	c #3D3E40",
"e 	c #E7E8E9",
"f 	c #DFE0E1",
"g 	c #DFE5E6",
"h 	c #E5A5A8",
"i 	c #E4B7B9",
"j 	c #DBE5E6",
"k 	c #DDDFE0",
"l 	c #DFE4E6",
"m 	c #DEE7E8",
"n 	c #DFE2E3",
"o 	c #DFDFE1",
"p 	c #E5E6E7",
"q 	c #D8D9DB",
"r 	c #9D9FA2",
"s 	c #D3D4D5",
"t 	c #D7D8D9",
"u 	c #D6D7D8",
"v 	c #D5DADC",
"w 	c #D5B8BA",
"x 	c #D37276",
"y 	c #D56C6F",
"z 	c #D47679",
"A 	c #BEC2C4",
"B 	c #C1CBCD",
"C 	c #D2B6B7",
"D 	c #DC9FA0",
"E 	c #D9C8C9",
"F 	c #D6DADB",
"G 	c #DADBDD",
"H 	c #AEB0B2",
"I 	c #252527",
"J 	c #747678",
"K 	c #B2B6B9",
"L 	c #CCCDCF",
"M 	c #CCCCCE",
"N 	c #C7C8CA",
"O 	c #BEC4C7",
"P 	c #CA8B8D",
"Q 	c #BBC2C4",
"R 	c #B8CDCF",
"S 	c #C89698",
"T 	c #D46F72",
"U 	c #CE8285",
"V 	c #C69799",
"W 	c #C39EA1",
"X 	c #CCA1A4",
"Y 	c #C9D0D3",
"Z 	c #CECFD1",
"` 	c #BBBDC0",
" .	c #7C7E81",
"..	c #ADA9AC",
"+.	c #B1ADB0",
"@.	c #BFC5C7",
"#.	c #BDC9CB",
"$.	c #BCC3C5",
"%.	c #BABFC2",
"&.	c #BEB7B9",
"*.	c #D86668",
"=.	c #D2787A",
"-.	c #C8999B",
";.	c #C1B0B3",
">.	c #C6A0A2",
",.	c #CB9092",
"'.	c #BDBCBE",
").	c #C8979A",
"!.	c #CB8588",
"~.	c #B7C2C4",
"{.	c #BDBEC1",
"].	c #C1C3C5",
"^.	c #B2B4B6",
"/.	c #AEB0B3",
"(.	c #535859",
"_.	c #C0AEB1",
":.	c #DB4C4F",
"<.	c #CE787A",
"[.	c #CD8184",
"}.	c #C69EA0",
"|.	c #BFB9BB",
"1.	c #CD898B",
"2.	c #BFB6B8",
"3.	c #C2ADAF",
"4.	c #CA9597",
"5.	c #CE8386",
"6.	c #CE8689",
"7.	c #CD888A",
"8.	c #CD8B8D",
"9.	c #D17E80",
"0.	c #BAC1C4",
"a.	c #B7B9BC",
"b.	c #B5B6B9",
"c.	c #AFB1B4",
"d.	c #B8BABD",
"e.	c #676869",
"f.	c #838486",
"g.	c #BAC4C7",
"h.	c #CA8487",
"i.	c #DA5C5F",
"j.	c #CF8486",
"k.	c #D17D7F",
"l.	c #D47275",
"m.	c #DA5E62",
"n.	c #D2797B",
"o.	c #D47376",
"p.	c #D07D81",
"q.	c #D08083",
"r.	c #D07F80",
"s.	c #CF8384",
"t.	c #CC8C8D",
"u.	c #DC646A",
"v.	c #CCA0A9",
"w.	c #C1BEC7",
"x.	c #BCBCC4",
"y.	c #B8B8C0",
"z.	c #BDBDC5",
"A.	c #908F96",
"B.	c #353637",
"C.	c #9A9B9D",
"D.	c #BDBFC1",
"E.	c #B9C3C5",
"F.	c #C99799",
"G.	c #D7676A",
"H.	c #DB5B5E",
"I.	c #DB5C5D",
"J.	c #DA6063",
"K.	c #D86466",
"L.	c #D66C70",
"M.	c #CE8589",
"N.	c #C89A9D",
"O.	c #C4A7AA",
"P.	c #C2AEB0",
"Q.	c #C3ABAE",
"R.	c #C4A5A7",
"S.	c #BC7F71",
"T.	c #A85E35",
"U.	c #9F7D52",
"V.	c #98A27C",
"W.	c #97A685",
"X.	c #9DA98B",
"Y.	c #8E977E",
"Z.	c #3E3E3F",
"`.	c #A2A4A6",
" +	c #C0C1C4",
".+	c #BDBEC0",
"++	c #B9CBCD",
"@+	c #CD898C",
"#+	c #D7696B",
"$+	c #CE8486",
"%+	c #D17B7E",
"&+	c #D17C7E",
"*+	c #D27B7E",
"=+	c #D2797C",
"-+	c #D2777A",
";+	c #D07F82",
">+	c #C6ACB0",
",+	c #ADC1BA",
"'+	c #218A40",
")+	c #118230",
"!+	c #177F2D",
"~+	c #1C7D2B",
"{+	c #1F7E2C",
"]+	c #217F2C",
"^+	c #27812E",
"/+	c #68A335",
"(+	c #597F28",
"_+	c #39393A",
":+	c #A0A1A3",
"<+	c #C2C3C5",
"[+	c #BCC2C4",
"}+	c #C5A3A5",
"|+	c #CE888A",
"1+	c #B9CDCF",
"2+	c #BBC5C7",
"3+	c #BBC4C6",
"4+	c #BCC3C4",
"5+	c #BCC0C2",
"6+	c #BEBABC",
"7+	c #C79C9E",
"8+	c #D47D82",
"9+	c #BC827A",
"0+	c #117E3A",
"a+	c #017A37",
"b+	c #047A38",
"c+	c #047A37",
"d+	c #027A38",
"e+	c #037A38",
"f+	c #63A137",
"g+	c #5A7D28",
"h+	c #8F9091",
"i+	c #C8CACC",
"j+	c #BEBFC1",
"k+	c #BDBDBF",
"l+	c #BEBCBE",
"m+	c #BEC5C9",
"n+	c #B1A8A0",
"o+	c #167C39",
"p+	c #057B35",
"q+	c #087B37",
"r+	c #077B37",
"s+	c #62A036",
"t+	c #5A7D27",
"u+	c #646566",
"v+	c #D1D3D5",
"w+	c #C5C5C7",
"x+	c #BCBDBF",
"y+	c #BBC3C5",
"z+	c #C79EA0",
"A+	c #CB9193",
"B+	c #C0BFC3",
"C+	c #ABB7B0",
"D+	c #157F3D",
"E+	c #057A35",
"F+	c #077A37",
"G+	c #61A036",
"H+	c #000000",
"I+	c #C9CACC",
"J+	c #D2D3D5",
"K+	c #BFC0C2",
"L+	c #BBC0C2",
"M+	c #CA9495",
"N+	c #C3ABAD",
"O+	c #BFBFC3",
"P+	c #ADB6AF",
"Q+	c #167F3D",
"R+	c #067A37",
"S+	c #5F9F35",
"T+	c #5D802A",
"U+	c #949598",
"V+	c #DCDDDF",
"W+	c #CED2D3",
"X+	c #BFADAF",
"Y+	c #D17B7D",
"Z+	c #5E822B",
"`+	c #303031",
" @	c #C7C9CB",
".@	c #E3E6E7",
"+@	c #CDBCBD",
"@@	c #C5989A",
"#@	c #C0BFC5",
"$@	c #AFB6B1",
"%@	c #17803E",
"&@	c #5E9E35",
"*@	c #5E832B",
"=@	c #626365",
"-@	c #D6D7D9",
";@	c #EBEDEE",
">@	c #C7CDCE",
",@	c #B9BABC",
"'@	c #BFBDBC",
")@	c #B7B9B2",
"!@	c #BBB9B8",
"~@	c #ADB2A9",
"{@	c #17803D",
"]@	c #609F35",
"^@	c #61842B",
"/@	c #6F7072",
"(@	c #F3F4F4",
"_@	c #D5D6D8",
":@	c #BBBCBE",
"<@	c #C2BFC5",
"[@	c #96AD94",
"}@	c #3F893D",
"|@	c #428838",
"1@	c #498A3C",
"2@	c #4B8A3D",
"3@	c #107D38",
"4@	c #4F9433",
"5@	c #59892C",
"6@	c #385C1E",
"7@	c #37581C",
"8@	c #35551B",
"9@	c #395519",
"0@	c #58595B",
"a@	c #D8D9DA",
"b@	c #C5C6C9",
"c@	c #B0B5B2",
"d@	c #2D864C",
"e@	c #00762F",
"f@	c #037A35",
"g@	c #0A7B36",
"h@	c #0D7D36",
"i@	c #128439",
"j@	c #118439",
"k@	c #479031",
"l@	c #405C1B",
"m@	c #2A2B2C",
"n@	c #7D7F82",
"o@	c #C8C9CA",
"p@	c #F0F0F1",
"q@	c #FAFAFA",
"r@	c #F7F5F8",
"s@	c #D5DCD3",
"t@	c #288B4A",
"u@	c #027A34",
"v@	c #2F8532",
"w@	c #43621C",
"x@	c #242526",
"y@	c #565759",
"z@	c #818285",
"A@	c #9E9FA1",
"B@	c #A7A8AA",
"C@	c #9F9BA2",
"D@	c #5F7362",
"E@	c #0B7933",
"F@	c #067C37",
"G@	c #037B38",
"H@	c #268433",
"I@	c #4B6F20",
"J@	c #090C04",
"K@	c #123717",
"L@	c #0C833A",
"M@	c #1C8235",
"N@	c #4F7924",
"O@	c #101607",
"P@	c #144C20",
"Q@	c #09833A",
"R@	c #057B38",
"S@	c #137F36",
"T@	c #4F8127",
"U@	c #1A240B",
"V@	c #155F29",
"W@	c #07823A",
"X@	c #067B37",
"Y@	c #0C7D37",
"Z@	c #4B852A",
"`@	c #25330F",
" #	c #146F30",
".#	c #077F39",
"+#	c #087C38",
"@#	c #44872D",
"##	c #314313",
"$#	c #117B36",
"%#	c #067D38",
"&#	c #047B38",
"*#	c #3B872F",
"=#	c #3C5318",
"-#	c #338B33",
";#	c #43601C",
">#	c #030502",
",#	c #163616",
"'#	c #253A12",
")#	c #060802",
"                      . + @                                     ",
"                  # $ % & * = -                                 ",
"              ; > , ' ' ' ' ' ) ! ~                             ",
"          { ] ^ / ( _ : < : : [ } ' | 1                         ",
"        2 3 4 5 6 7 8 9 5 5 0 0 0 6 a b c                       ",
"      d ] e f f f g h i j k f l m n o p q 2                     ",
"      r s t u t v w x y z A B C D E F u G H I                   ",
"    J K L L M N O P Q R S T U V W X Y L Z `  .                  ",
"    ..+.@.#.$.%.&.*.=.-.;.>.,.'.).!.~.{.].^./.                  ",
"  (._.:.<.[.}.|.1.2.3.4.1.5.6.7.8.9.0.a.b.c.d.e.                ",
"  f.g.h.i.j.k.l.m.n.o.p.q.r.s.j.t.u.v.w.x.y.z.A.                ",
"B.C.D.E.F.G.H.I.J.K.L.M.N.O.P.Q.R.S.T.U.V.W.X.Y.                ",
"Z.`. +.+++@+#+$+%+&+*+n.=+-+;+>+,+'+)+!+~+{+]+^+/+(+            ",
"_+:+<+.+[+}+|+1+2+3+4+5+6+P.7+8+9+0+a+b+b+c+d+e+f+g+            ",
"  h+i+j+.+k+n.l+D..+.+.+{.5+$.m+n+o+p+q+q+q+r+q+s+t+            ",
"  u+v+w+x+y+z+A+y+.+.+.+.+.+.+B+C+D+E+q+q+q+r+F+G+t+H+          ",
"    I+J+K+L+M+N+5+.+.+.+.+.+.+O+P+Q+E+q+q+q+q+R+S+T+H+          ",
"    U+V+W+X+Y+2+.+.+.+.+.+.+.+O+P+Q+E+q+q+q+q+R+S+Z+H+          ",
"    `+ @.@+@@@[+.+.+.+.+.+j+O+#@$@%@E+q+q+q+q+R+&@*@H+          ",
"      =@-@;@>@,@.+.+.+.+B+'@)@!@~@{@E+q+q+q+q+R+]@^@H+          ",
"        /@-@(@_@:@,@:@<@[@}@|@1@2@3@r+q+q+q+q+R+4@5@6@7@8@9@    ",
"          0@j+[ < a@b@{.c@d@e@f@f@q+q+q+q+q+q+q+g@h@i@j@k@l@    ",
"            m@n@o@p@/ q@r@s@t@u@q+q+q+q+q+q+q+q+r+r+d+v@w@      ",
"                x@y@z@A@B@C@D@E@F@q+q+q+q+q+q+q+q+G@H@I@J@H+    ",
"                              K@L@r+q+q+q+q+q+q+e+M@N@O@H+      ",
"                                P@Q@r+q+q+q+q+R@S@T@U@H+H+      ",
"                                  V@W@q+q+q+X@Y@Z@`@H+H+        ",
"                                     #.#q+r++#@###H+H+          ",
"                                      $#%#&#*#=#H+H+            ",
"                                        L@-#;#>#H+              ",
"                                        ,#'#)#H+                ",
"                                                                "};
